<?xml version="1.0" standalone="no"?>
<!DOCTYPE svg PUBLIC "-//W3C//DTD SVG 20010904//EN"
 "http://www.w3.org/TR/2001/REC-SVG-20010904/DTD/svg10.dtd">
<svg version="1.0" xmlns="http://www.w3.org/2000/svg"
 width="794.000000pt" height="1123.000000pt" viewBox="0 0 794.000000 1123.000000"
 preserveAspectRatio="xMidYMid meet">
<metadata>
Created by potrace 1.15, written by Peter Selinger 2001-2017
</metadata>
<g transform="translate(0.000000,1123.000000) scale(0.100000,-0.100000)"
fill="#000000" stroke="none">
<path d="M4368 8696 c-38 -14 -118 -72 -118 -86 0 -4 -20 -30 -44 -56 -24 -28
-70 -103 -105 -173 -34 -69 -66 -130 -71 -136 -19 -23 -70 -195 -84 -285 -17
-106 -44 -357 -56 -525 -4 -60 -12 -123 -18 -140 -6 -16 -13 -120 -16 -230 -7
-229 -31 -551 -45 -587 -11 -30 -18 -409 -8 -425 23 -36 155 7 259 83 47 35
79 77 163 208 22 35 66 91 97 125 67 72 129 192 136 263 4 46 3 48 -20 48 -39
0 -94 -46 -205 -172 -98 -110 -151 -152 -179 -141 -33 12 -29 134 12 386 13
81 24 170 24 197 0 28 7 96 16 153 8 56 19 149 24 207 20 226 31 308 55 395
14 50 31 119 37 155 21 125 39 173 77 211 46 47 109 67 155 51 64 -23 93 -16
150 38 30 28 68 77 85 109 28 53 31 67 31 147 0 115 -13 160 -50 179 -38 19
-248 20 -302 1z"/>
<path d="M5118 8696 c-38 -14 -118 -72 -118 -86 0 -4 -20 -30 -44 -56 -24 -28
-70 -103 -105 -173 -34 -69 -66 -130 -71 -136 -19 -23 -70 -195 -84 -285 -17
-106 -44 -357 -56 -525 -4 -60 -12 -123 -18 -140 -6 -16 -13 -120 -16 -230 -7
-229 -31 -551 -45 -587 -11 -30 -18 -409 -8 -425 23 -36 155 7 259 83 47 35
79 77 163 208 22 35 66 91 97 125 51 55 125 181 130 222 3 24 18 -150 26 -306
9 -157 11 -166 49 -228 33 -52 77 -77 138 -77 44 0 60 7 136 58 48 31 98 71
111 87 56 67 122 184 148 261 16 45 47 113 69 150 74 123 102 260 105 519 1
128 1 131 -29 179 -16 28 -39 73 -50 100 -28 69 -61 85 -182 86 l-91 0 -91
-101 c-80 -89 -100 -119 -160 -243 -71 -144 -104 -230 -146 -371 -14 -48 -24
-69 -24 -52 -1 22 -6 27 -24 27 -38 0 -94 -48 -204 -172 -98 -110 -151 -152
-179 -141 -33 12 -29 134 12 386 13 81 24 170 24 197 0 28 7 96 16 153 8 56
19 149 24 207 20 226 31 308 55 395 14 50 31 119 37 155 21 125 39 173 77 211
46 47 109 67 155 51 64 -23 93 -16 150 38 30 28 68 77 85 109 28 53 31 67 31
147 0 115 -13 160 -50 179 -38 19 -248 20 -302 1z m606 -1531 c52 -56 84 -248
54 -323 -9 -20 -32 -89 -52 -153 -28 -90 -43 -122 -69 -146 -44 -42 -156 -113
-178 -113 -23 0 -42 28 -75 111 -28 72 -28 88 7 249 40 184 187 400 272 400
10 0 28 -11 41 -25z"/>
<path d="M2360 7762 c-24 -24 -30 -39 -30 -71 0 -38 4 -44 50 -77 28 -20 52
-46 55 -57 10 -48 16 -130 21 -293 5 -151 4 -175 -11 -198 -15 -22 -25 -26
-65 -26 -28 0 -61 -8 -79 -17 -27 -16 -33 -16 -53 -3 -15 9 -68 17 -148 22
-154 10 -148 10 -188 2 -70 -14 -121 61 -122 179 0 38 -5 99 -11 137 -23 139
8 206 101 221 65 10 85 30 95 94 5 35 2 52 -10 72 -16 25 -18 25 -113 19 -117
-8 -150 -8 -313 0 l-126 6 -22 -28 c-28 -36 -48 -101 -34 -115 5 -5 39 -17 74
-25 107 -25 109 -27 109 -147 0 -69 -5 -119 -16 -151 -15 -44 -15 -54 -1 -129
14 -73 15 -90 2 -147 -18 -84 -18 -266 0 -350 8 -36 14 -113 15 -171 0 -131
-16 -164 -95 -190 -62 -21 -75 -40 -75 -111 0 -65 20 -93 75 -104 49 -9 186 1
221 16 29 12 40 11 116 -14 75 -25 89 -27 121 -17 77 26 69 62 -29 134 -34 25
-66 51 -70 59 -10 15 -26 138 -25 188 0 19 4 101 8 182 8 143 9 148 36 175 27
28 29 28 173 31 101 3 155 0 177 -9 18 -7 79 -15 137 -18 99 -6 105 -7 117
-31 9 -18 13 -88 13 -243 0 -252 -1 -255 -94 -347 -45 -44 -56 -61 -56 -87 0
-51 58 -70 121 -38 26 14 35 14 88 0 39 -10 106 -15 199 -15 137 0 141 1 171
26 35 29 40 63 14 86 -10 9 -55 35 -101 57 -108 54 -118 74 -104 205 6 50 8
177 5 282 -5 149 -3 195 8 215 10 19 13 78 10 276 -3 245 -2 254 19 288 23 36
33 41 114 48 54 5 66 17 66 64 0 48 -49 99 -113 118 -28 8 -89 15 -136 15 -49
0 -110 7 -141 16 -102 30 -116 29 -150 -4z"/>
<path d="M3451 7505 c-104 -46 -255 -193 -285 -279 -47 -132 -88 -275 -92
-320 -2 -28 -13 -118 -23 -201 -31 -241 -26 -462 11 -531 9 -17 33 -45 53 -63
31 -27 43 -31 90 -31 55 0 55 0 150 85 177 160 245 255 248 343 2 46 1 47 -30
50 -34 3 -65 -14 -167 -93 -54 -42 -60 -45 -80 -32 -11 8 -28 27 -36 43 -19
38 -25 195 -11 267 18 84 56 126 204 224 158 105 233 174 243 227 21 117 -18
258 -86 304 -40 26 -135 30 -189 7z m53 -226 c31 -24 36 -81 10 -130 -19 -37
-98 -89 -136 -89 -24 0 -28 4 -28 28 0 36 26 126 51 175 16 30 25 37 48 37 16
0 40 -9 55 -21z"/>
<path d="M7026 5032 c-3 -5 -27 -12 -53 -15 -43 -5 -54 -12 -104 -65 -96 -102
-228 -347 -229 -424 0 -15 -7 -53 -15 -85 -14 -54 -55 -294 -69 -408 -4 -27
-14 -90 -23 -140 -20 -106 -38 -130 -106 -140 -26 -4 -52 -13 -58 -21 -6 -8
-17 -14 -25 -14 -21 0 -220 -176 -252 -222 -41 -61 -84 -207 -117 -403 -9 -49
-27 -153 -40 -230 -17 -96 -25 -178 -25 -261 0 -107 3 -126 23 -165 24 -46 77
-89 108 -89 20 0 83 72 157 181 65 95 156 193 173 187 11 -4 15 -46 19 -186 3
-100 9 -185 15 -191 6 -5 21 -12 35 -16 20 -5 43 7 118 61 75 54 98 76 119
118 14 28 47 83 73 121 60 90 76 121 83 169 3 21 22 65 42 98 19 33 35 65 35
72 0 12 -31 46 -42 46 -3 0 -32 -33 -65 -73 -60 -72 -117 -112 -146 -101 -21
8 -27 201 -11 329 8 55 14 127 14 160 0 77 35 317 60 419 11 44 20 98 20 120
0 51 23 150 56 241 14 38 31 101 39 140 23 124 84 296 115 327 28 28 73 37 85
18 10 -16 63 -11 106 10 50 26 94 86 109 151 15 62 9 193 -11 234 -13 27 -21
31 -69 36 -30 3 -74 9 -96 14 -25 4 -44 3 -48 -3z m-572 -1535 c79 -58 -13
-459 -131 -568 -80 -75 -138 -65 -163 29 -16 61 2 245 32 314 47 113 107 188
173 219 48 22 65 23 89 6z"/>
<path d="M5828 5006 c-38 -14 -118 -72 -118 -86 0 -4 -20 -30 -44 -56 -24 -28
-70 -103 -105 -173 -34 -69 -66 -130 -71 -136 -19 -23 -70 -195 -84 -285 -17
-106 -44 -357 -56 -525 -4 -60 -12 -123 -18 -140 -6 -16 -13 -120 -16 -230 -7
-229 -31 -551 -45 -587 -11 -30 -18 -409 -8 -425 23 -36 155 7 259 83 47 35
79 77 163 208 22 35 66 91 97 125 67 72 129 192 136 263 4 46 3 48 -20 48 -39
0 -94 -46 -205 -172 -98 -110 -151 -152 -179 -141 -33 12 -29 134 12 386 13
81 24 170 24 197 0 28 7 96 16 153 8 56 19 149 24 207 20 226 31 308 55 395
14 50 31 119 37 155 21 125 39 173 77 211 46 47 109 67 155 51 64 -23 93 -16
150 38 30 28 68 77 85 109 28 53 31 67 31 147 0 115 -13 160 -50 179 -38 19
-248 20 -302 1z"/>
<path d="M1750 4080 c-14 -4 -107 -8 -207 -9 l-182 -1 -20 -26 c-13 -17 -21
-41 -21 -65 0 -33 9 -48 62 -106 83 -92 131 -168 163 -260 15 -43 47 -123 71
-179 32 -72 44 -114 44 -148 0 -57 23 -142 57 -209 13 -26 50 -126 82 -221 33
-95 67 -188 77 -207 9 -19 23 -74 31 -123 10 -70 23 -108 57 -175 l44 -86 46
1 c59 0 83 23 91 83 4 25 17 82 30 126 13 44 26 98 30 120 9 55 57 202 122
379 31 83 65 186 78 230 12 45 34 103 48 131 15 27 27 61 28 75 0 14 4 33 8
44 5 12 15 -21 30 -100 13 -66 32 -135 42 -156 10 -20 24 -69 30 -110 7 -42
24 -94 40 -123 15 -27 48 -111 74 -185 26 -74 53 -144 61 -155 8 -10 14 -32
14 -47 0 -39 33 -156 59 -205 11 -23 35 -52 53 -64 18 -13 37 -29 41 -36 4 -7
16 -13 26 -13 31 0 52 36 61 102 8 64 19 126 47 253 21 94 160 529 184 578 11
21 27 75 34 120 12 65 20 87 45 112 16 17 30 36 30 41 0 6 15 50 34 98 19 48
42 120 51 159 24 107 49 126 187 142 76 9 98 34 98 116 0 79 -15 89 -133 89
-49 0 -97 -5 -108 -10 -10 -6 -55 -13 -98 -17 -65 -5 -85 -3 -105 11 -34 22
-78 20 -127 -4 -70 -36 -76 -108 -10 -138 78 -35 81 -44 55 -170 -18 -88 -112
-372 -149 -447 -13 -27 -27 -72 -30 -100 -4 -27 -20 -75 -36 -105 -16 -30 -29
-59 -29 -65 0 -5 -5 -28 -11 -49 -13 -47 -20 -38 -39 44 -7 30 -27 89 -46 131
-39 87 -100 303 -114 400 -5 36 -21 91 -35 122 -32 69 -44 157 -24 174 8 6 48
21 89 34 97 29 124 56 117 112 -9 62 -33 77 -128 77 -43 0 -104 -7 -136 -15
-75 -20 -166 -19 -205 1 -54 28 -138 -5 -152 -60 -10 -42 10 -75 60 -96 l46
-20 -4 -53 c-5 -51 -109 -354 -169 -492 -17 -38 -40 -101 -50 -139 -11 -38
-28 -88 -38 -110 -11 -23 -24 -67 -31 -100 -6 -32 -15 -54 -20 -50 -4 5 -20
54 -35 109 -15 54 -35 115 -45 135 -23 46 -90 254 -90 280 0 11 -16 60 -35
109 -19 48 -35 93 -35 99 0 6 -16 40 -35 75 -19 35 -35 78 -35 95 0 38 21 54
107 83 98 32 130 92 78 144 -21 22 -32 25 -97 24 -40 -1 -84 -5 -98 -9z"/>
<path d="M4654 3849 c-43 -12 -80 -57 -139 -168 -36 -69 -63 -105 -103 -140
-78 -67 -96 -101 -89 -164 4 -28 11 -55 16 -60 16 -16 48 2 98 54 39 40 57 51
90 56 53 7 58 -2 71 -132 10 -93 9 -110 -17 -250 -16 -83 -40 -176 -55 -208
-25 -57 -76 -288 -76 -347 0 -65 57 -150 100 -150 37 0 115 28 133 48 23 26
46 153 58 324 13 183 19 211 63 277 23 33 36 68 41 103 16 117 77 245 148 304
31 26 65 29 122 10 53 -18 151 112 162 217 13 109 -38 217 -101 217 -39 0 -95
-17 -117 -37 -9 -7 -46 -80 -83 -162 -40 -88 -79 -160 -96 -176 -29 -28 -30
-28 -50 -10 -18 16 -19 28 -15 147 2 81 0 139 -7 153 -9 19 -112 108 -121 104
-1 0 -16 -5 -33 -10z"/>
<path d="M3811 3729 c-80 -89 -100 -120 -161 -243 -38 -78 -91 -204 -117 -281
-45 -133 -47 -145 -46 -245 1 -154 18 -412 28 -435 40 -92 93 -135 170 -135
44 0 60 7 136 58 48 31 98 71 111 87 56 67 122 184 148 261 16 45 47 113 69
150 74 123 102 260 105 519 1 128 1 131 -29 179 -16 28 -39 73 -50 100 -28 69
-61 85 -182 86 l-91 0 -91 -101z m183 -254 c52 -56 84 -248 54 -323 -9 -20
-32 -89 -52 -153 -28 -90 -43 -122 -69 -146 -44 -42 -156 -113 -178 -113 -23
0 -42 28 -75 111 -28 72 -28 88 7 249 40 184 187 400 272 400 10 0 28 -11 41
-25z"/>
</g>
</svg>
